<svg width="103" height="72" viewBox="0 0 103 72" fill="none" xmlns="http://www.w3.org/2000/svg">
<path d="M96.9539 18.3906C98.3303 20.1594 99.4956 22.0811 100.426 24.1171L74.0318 43.4564L63.001 36.5833V28.3146L74.0318 35.1877L96.9539 18.3906Z" fill="#21A038"/>
<path d="M51.7429 35.9981C51.7429 35.627 51.752 35.2585 51.7702 34.892L45.0852 34.5664C45.0625 35.0413 45.0488 35.5209 45.0488 36.0048C45.046 39.7859 45.7942 43.5303 47.2507 47.0232C48.7071 50.5162 50.843 53.689 53.5359 56.3595L58.2778 51.6485C56.2049 49.5965 54.5604 47.1573 53.4389 44.4715C52.3175 41.7857 51.7411 38.906 51.7429 35.9981Z" fill="url(#paint0_linear_1120_682)"/>
<path d="M74.0253 13.8523C74.3984 13.8523 74.7692 13.8659 75.1378 13.884L75.4723 7.23707C74.9931 7.21445 74.5106 7.20315 74.0253 7.20315C70.2194 7.19853 66.4503 7.94119 62.9341 9.38848C59.4179 10.8358 56.2239 12.9592 53.5356 15.6368L58.2775 20.35C60.3421 18.289 62.7963 16.6538 65.4989 15.5387C68.2014 14.4236 71.099 13.8505 74.0253 13.8523Z" fill="url(#paint1_linear_1120_682)"/>
<path d="M74.0255 58.1477C73.6524 58.1477 73.2814 58.1477 72.9107 58.1183L72.5762 64.7629C73.057 64.7871 73.5402 64.7992 74.0255 64.7992C77.8298 64.8031 81.5971 64.06 85.1115 62.6123C88.6258 61.1646 91.8176 59.0409 94.5039 56.3633L89.7711 51.6523C87.7061 53.7123 85.2522 55.3465 82.5502 56.4612C79.8481 57.5759 76.9511 58.1491 74.0255 58.1477Z" fill="url(#paint2_linear_1120_682)"/>
<path d="M86.5858 17.7159L92.2196 13.5884C87.0702 9.44384 80.6425 7.18771 74.0166 7.19926V13.8507C78.5034 13.8452 82.886 15.1929 86.5858 17.7159Z" fill="url(#paint3_linear_1120_682)"/>
<path d="M103 35.997C103.004 34.2667 102.851 32.5393 102.545 30.8359L96.3081 35.4044C96.3081 35.6013 96.3081 35.798 96.3081 35.997C96.3098 39.0915 95.6571 42.1519 94.3927 44.9797C93.1281 47.8075 91.2798 50.3396 88.9678 52.4119L93.4662 57.3537C96.4721 54.6564 98.8741 51.3615 100.516 47.6824C102.159 44.0032 103.005 40.022 103 35.997Z" fill="#21A038"/>
<path d="M74.0258 58.1457C70.9122 58.1467 67.8331 57.4978 64.9878 56.241C62.1426 54.9842 59.5946 53.1473 57.5089 50.8496L52.5396 55.3186C55.2528 58.3068 58.5677 60.6947 62.2692 62.3276C65.9706 63.9604 69.976 64.8018 74.0258 64.797V58.1457Z" fill="url(#paint4_linear_1120_682)"/>
<path d="M59.0833 19.5862L54.5872 14.6445C51.5804 17.3412 49.1775 20.636 47.5343 24.3152C45.8912 27.9943 45.0443 31.9757 45.0488 36.0011H51.743C51.7416 32.9067 52.3943 29.8463 53.6588 27.0186C54.9233 24.1909 56.7713 21.6587 59.0833 19.5862Z" fill="url(#paint5_linear_1120_682)"/>
<path fill-rule="evenodd" clip-rule="evenodd" d="M32.9756 68C32.9756 68 59.0216 60.8249 61.9511 17.8879C61.9511 17.8879 48.71 17.3089 32.9756 4C17.2389 17.309 4 17.8879 4 17.8879C6.93008 60.824 32.9756 68 32.9756 68Z" fill="#465587" stroke="#FAF8F5" stroke-width="6"/>
<defs>
<linearGradient id="paint0_linear_1120_682" x1="54.8898" y1="55.5295" x2="47.6554" y2="34.4896" gradientUnits="userSpaceOnUse">
<stop offset="0.14" stop-color="#F1E813"/>
<stop offset="0.3" stop-color="#E6E418"/>
<stop offset="0.58" stop-color="#C9DA26"/>
<stop offset="0.89" stop-color="#A2CC39"/>
</linearGradient>
<linearGradient id="paint1_linear_1120_682" x1="55.4469" y1="16.8128" x2="74.2555" y2="9.60165" gradientUnits="userSpaceOnUse">
<stop offset="0.06" stop-color="#0FA7DF"/>
<stop offset="0.54" stop-color="#0098F8"/>
<stop offset="0.92" stop-color="#0290EA"/>
</linearGradient>
<linearGradient id="paint2_linear_1120_682" x1="72.1348" y1="60.7847" x2="93.424" y2="55.9461" gradientUnits="userSpaceOnUse">
<stop offset="0.12" stop-color="#A2CC39"/>
<stop offset="0.28" stop-color="#86C239"/>
<stop offset="0.87" stop-color="#219F38"/>
</linearGradient>
<linearGradient id="paint3_linear_1120_682" x1="72.6242" y1="9.42697" x2="90.8168" y2="15.0752" gradientUnits="userSpaceOnUse">
<stop offset="0.06" stop-color="#0290EA"/>
<stop offset="0.79" stop-color="#0C89CA"/>
</linearGradient>
<linearGradient id="paint4_linear_1120_682" x1="54.2188" y1="54.5089" x2="74.0122" y2="61.9513" gradientUnits="userSpaceOnUse">
<stop offset="0.13" stop-color="#F1E813"/>
<stop offset="0.3" stop-color="#EAE616"/>
<stop offset="0.53" stop-color="#D8DF1F"/>
<stop offset="0.8" stop-color="#BAD52D"/>
<stop offset="0.98" stop-color="#A2CC39"/>
</linearGradient>
<linearGradient id="paint5_linear_1120_682" x1="47.5426" y1="36.8062" x2="55.4161" y2="16.2003" gradientUnits="userSpaceOnUse">
<stop offset="0.07" stop-color="#A2CC39"/>
<stop offset="0.26" stop-color="#81C45E"/>
<stop offset="0.92" stop-color="#0FA7DF"/>
</linearGradient>
</defs>
</svg>
